<svg width="40" height="40" viewBox="0 0 40 40" fill="none" xmlns="http://www.w3.org/2000/svg">
<path d="M26.983 3.3335H13.0163C6.94967 3.3335 3.33301 6.95016 3.33301 13.0168V26.9668C3.33301 33.0502 6.94967 36.6668 13.0163 36.6668H26.9663C33.033 36.6668 36.6497 33.0502 36.6497 26.9835V13.0168C36.6663 6.95016 33.0497 3.3335 26.983 3.3335ZM19.1663 28.7502C19.1663 29.3502 18.5663 29.7502 18.0163 29.5168C15.9997 28.6502 13.3663 27.8502 11.533 27.6168L11.2163 27.5835C10.1997 27.4502 9.36634 26.5002 9.36634 25.4668V12.6335C9.36634 11.3502 10.3997 10.4002 11.6663 10.5002C13.7497 10.6668 16.833 11.6668 18.7663 12.7668C19.033 12.9168 19.1663 13.2002 19.1663 13.4835V28.7502ZM30.633 25.4502C30.633 26.4835 29.7997 27.4335 28.783 27.5668L28.433 27.6002C26.6163 27.8502 23.9997 28.6335 21.983 29.4835C21.433 29.7168 20.833 29.3168 20.833 28.7168V13.4668C20.833 13.1668 20.983 12.8835 21.2497 12.7335C23.183 11.6502 26.1997 10.6835 28.2497 10.5002H28.3163C29.5997 10.5002 30.633 11.5335 30.633 12.8168V25.4502Z" fill="#546FFF"/>
</svg>
