<svg width="188" height="40" viewBox="0 0 188 40" fill="none" xmlns="http://www.w3.org/2000/svg">
<path d="M26.983 3.33337H13.0163C6.94967 3.33337 3.33301 6.95004 3.33301 13.0167V26.9667C3.33301 33.05 6.94967 36.6667 13.0163 36.6667H26.9663C33.033 36.6667 36.6497 33.05 36.6497 26.9834V13.0167C36.6663 6.95004 33.0497 3.33337 26.983 3.33337ZM19.1663 28.75C19.1663 29.35 18.5663 29.75 18.0163 29.5167C15.9997 28.65 13.3663 27.85 11.533 27.6167L11.2163 27.5834C10.1997 27.45 9.36634 26.5 9.36634 25.4667V12.6334C9.36634 11.35 10.3997 10.4 11.6663 10.5C13.7497 10.6667 16.833 11.6667 18.7663 12.7667C19.033 12.9167 19.1663 13.2 19.1663 13.4834V28.75ZM30.633 25.45C30.633 26.4834 29.7997 27.4334 28.783 27.5667L28.433 27.6C26.6163 27.85 23.9997 28.6334 21.983 29.4834C21.433 29.7167 20.833 29.3167 20.833 28.7167V13.4667C20.833 13.1667 20.983 12.8834 21.2497 12.7334C23.183 11.65 26.1997 10.6834 28.2497 10.5H28.3163C29.5997 10.5 30.633 11.5334 30.633 12.8167V25.45Z" fill="#546FFF"/>
<path d="M58.688 33V12.52H52.352V9.16H68.672V12.52H62.432V33H58.688ZM73.461 33.384C72.2877 33.384 71.253 33.1813 70.357 32.776C69.4823 32.3493 68.7997 31.7733 68.309 31.048C67.8183 30.3013 67.573 29.4267 67.573 28.424C67.573 27.4853 67.7757 26.6427 68.181 25.896C68.6077 25.1493 69.2583 24.52 70.133 24.008C71.0077 23.496 72.1063 23.1333 73.429 22.92L79.445 21.928V24.776L74.133 25.704C73.173 25.8747 72.469 26.184 72.021 26.632C71.573 27.0587 71.349 27.6133 71.349 28.296C71.349 28.9573 71.5943 29.5013 72.085 29.928C72.597 30.3333 73.2477 30.536 74.037 30.536C75.0183 30.536 75.8717 30.3227 76.597 29.896C77.3437 29.4693 77.9197 28.904 78.325 28.2C78.7303 27.4747 78.933 26.6747 78.933 25.8V21.352C78.933 20.4987 78.613 19.8053 77.973 19.272C77.3543 18.7173 76.5223 18.44 75.477 18.44C74.517 18.44 73.6743 18.696 72.949 19.208C72.245 19.6987 71.7223 20.3387 71.381 21.128L68.373 19.624C68.693 18.7707 69.2157 18.024 69.941 17.384C70.6663 16.7227 71.509 16.2107 72.469 15.848C73.4503 15.4853 74.485 15.304 75.573 15.304C76.9383 15.304 78.1437 15.56 79.189 16.072C80.2557 16.584 81.077 17.2987 81.653 18.216C82.2503 19.112 82.549 20.1573 82.549 21.352V33H79.093V29.864L79.829 29.96C79.4237 30.664 78.901 31.272 78.261 31.784C77.6423 32.296 76.9277 32.6907 76.117 32.968C75.3277 33.2453 74.4423 33.384 73.461 33.384ZM92.217 33.384C90.4463 33.384 88.889 32.9467 87.545 32.072C86.2223 31.1973 85.2943 30.024 84.761 28.552L87.545 27.24C88.0143 28.2213 88.6543 29 89.465 29.576C90.297 30.152 91.2143 30.44 92.217 30.44C93.0703 30.44 93.7637 30.248 94.297 29.864C94.8303 29.48 95.097 28.9573 95.097 28.296C95.097 27.8693 94.9797 27.528 94.745 27.272C94.5103 26.9947 94.2117 26.7707 93.849 26.6C93.5077 26.4293 93.1557 26.3013 92.793 26.216L90.073 25.448C88.5797 25.0213 87.4597 24.3813 86.713 23.528C85.9877 22.6533 85.625 21.64 85.625 20.488C85.625 19.4427 85.8917 18.536 86.425 17.768C86.9583 16.9787 87.6943 16.3707 88.633 15.944C89.5717 15.5173 90.6277 15.304 91.801 15.304C93.3797 15.304 94.7877 15.6987 96.025 16.488C97.2623 17.256 98.137 18.3333 98.649 19.72L95.865 21.032C95.5237 20.2 94.9797 19.5387 94.233 19.048C93.5077 18.5573 92.6863 18.312 91.769 18.312C90.9797 18.312 90.3503 18.504 89.881 18.888C89.4117 19.2507 89.177 19.7307 89.177 20.328C89.177 20.7333 89.2837 21.0747 89.497 21.352C89.7103 21.608 89.9877 21.8213 90.329 21.992C90.6703 22.1413 91.0223 22.2693 91.385 22.376L94.201 23.208C95.6303 23.6133 96.729 24.2533 97.497 25.128C98.265 25.9813 98.649 27.0053 98.649 28.2C98.649 29.224 98.3717 30.1307 97.817 30.92C97.2837 31.688 96.537 32.296 95.577 32.744C94.617 33.1707 93.497 33.384 92.217 33.384ZM101.232 33V8.776H104.848V25L103.44 24.648L112.112 15.688H116.624L110.096 22.632L116.912 33H112.752L106.672 23.816L108.816 23.528L103.696 28.968L104.848 26.568V33H101.232ZM118.78 33V9.16H134.3V12.52H122.556V19.688H133.02V23.048H122.556V33H118.78ZM136.156 33V8.776H139.772V33H136.156ZM151.391 33.384C149.727 33.384 148.202 32.9893 146.815 32.2C145.45 31.4107 144.362 30.3333 143.551 28.968C142.741 27.6027 142.335 26.056 142.335 24.328C142.335 22.5787 142.741 21.032 143.551 19.688C144.362 18.3227 145.45 17.256 146.815 16.488C148.181 15.6987 149.706 15.304 151.391 15.304C153.098 15.304 154.623 15.6987 155.967 16.488C157.333 17.256 158.41 18.3227 159.199 19.688C160.01 21.032 160.415 22.5787 160.415 24.328C160.415 26.0773 160.01 27.6347 159.199 29C158.389 30.3653 157.301 31.4427 155.935 32.232C154.57 33 153.055 33.384 151.391 33.384ZM151.391 30.024C152.415 30.024 153.322 29.7787 154.111 29.288C154.901 28.7973 155.519 28.1253 155.967 27.272C156.437 26.3973 156.671 25.416 156.671 24.328C156.671 23.24 156.437 22.2693 155.967 21.416C155.519 20.5627 154.901 19.8907 154.111 19.4C153.322 18.9093 152.415 18.664 151.391 18.664C150.389 18.664 149.482 18.9093 148.671 19.4C147.882 19.8907 147.253 20.5627 146.783 21.416C146.335 22.2693 146.111 23.24 146.111 24.328C146.111 25.416 146.335 26.3973 146.783 27.272C147.253 28.1253 147.882 28.7973 148.671 29.288C149.482 29.7787 150.389 30.024 151.391 30.024ZM166.865 33L160.913 15.688H164.753L169.297 29.48H167.953L172.593 15.688H175.889L180.497 29.48H179.153L183.729 15.688H187.569L181.585 33H178.321L173.649 18.888H174.833L170.161 33H166.865Z" fill="#141522"/>
</svg>
